<svg width="2770" height="2770" viewBox="0 0 2770 2770" fill="none" xmlns="http://www.w3.org/2000/svg">
<rect width="2770" height="2770" fill="white"/>
<path d="M1063.14 806.678L1288.78 1197.5L1063.14 1588.32L611.859 1588.32L386.218 1197.5L611.859 806.678L1063.14 806.678Z" fill="black"/>
<mask id="path-3-inside-1_10_502" fill="white">
<path fill-rule="evenodd" clip-rule="evenodd" d="M837.208 1196.7L618.104 817.199L398.999 1196.7L618.104 1576.2L837.208 1196.7Z"/>
</mask>
<path fill-rule="evenodd" clip-rule="evenodd" d="M837.208 1196.7L618.104 817.199L398.999 1196.7L618.104 1576.2L837.208 1196.7Z" fill="#2864AE"/>
<path d="M618.104 817.199L621.568 815.199L618.104 809.199L614.64 815.199L618.104 817.199ZM837.208 1196.7L840.672 1198.7L841.827 1196.7L840.672 1194.7L837.208 1196.7ZM398.999 1196.7L395.535 1194.7L394.381 1196.7L395.535 1198.7L398.999 1196.7ZM618.104 1576.2L614.64 1578.2L618.104 1584.2L621.568 1578.2L618.104 1576.2ZM614.64 819.199L833.744 1198.7L840.672 1194.7L621.568 815.199L614.64 819.199ZM402.464 1198.7L621.568 819.199L614.64 815.199L395.535 1194.7L402.464 1198.7ZM621.568 1574.2L402.464 1194.7L395.535 1198.7L614.64 1578.2L621.568 1574.2ZM833.744 1194.7L614.64 1574.2L621.568 1578.2L840.672 1198.7L833.744 1194.7Z" fill="black" mask="url(#path-3-inside-1_10_502)"/>
<mask id="path-5-inside-2_10_502" fill="white">
<path fill-rule="evenodd" clip-rule="evenodd" d="M1056.76 1575.25L1275.86 1195.75L837.656 1195.75L618.552 1575.25L1056.76 1575.25Z"/>
</mask>
<path fill-rule="evenodd" clip-rule="evenodd" d="M1056.76 1575.25L1275.86 1195.75L837.656 1195.75L618.552 1575.25L1056.76 1575.25Z" fill="#FABD10"/>
<path d="M1275.86 1195.75L1279.33 1197.75L1282.79 1191.75L1275.86 1191.75L1275.86 1195.75ZM1056.76 1575.25L1056.76 1579.25L1059.07 1579.25L1060.22 1577.25L1056.76 1575.25ZM837.656 1195.75L837.656 1191.75L835.347 1191.75L834.192 1193.75L837.656 1195.75ZM618.552 1575.25L615.088 1573.25L611.623 1579.25L618.552 1579.25L618.552 1575.25ZM1272.4 1193.75L1053.3 1573.25L1060.22 1577.25L1279.33 1197.75L1272.4 1193.75ZM837.656 1199.75L1275.86 1199.75L1275.86 1191.75L837.656 1191.75L837.656 1199.75ZM622.016 1577.25L841.12 1197.75L834.192 1193.75L615.088 1573.25L622.016 1577.25ZM1056.76 1571.25L618.552 1571.25L618.552 1579.25L1056.76 1579.25L1056.76 1571.25Z" fill="black" mask="url(#path-5-inside-2_10_502)"/>
<mask id="path-7-inside-3_10_502" fill="white">
<path fill-rule="evenodd" clip-rule="evenodd" d="M1056.76 815.749L618.552 815.749L837.656 1195.25L1275.86 1195.25L1056.76 815.749Z"/>
</mask>
<path fill-rule="evenodd" clip-rule="evenodd" d="M1056.76 815.749L618.552 815.749L837.656 1195.25L1275.86 1195.25L1056.76 815.749Z" fill="#46AD44"/>
<path d="M618.552 815.749L618.552 811.749L611.623 811.749L615.088 817.749L618.552 815.749ZM1056.76 815.749L1060.22 813.749L1059.07 811.749L1056.76 811.749L1056.76 815.749ZM837.656 1195.25L834.192 1197.25L835.347 1199.25L837.656 1199.25L837.656 1195.25ZM1275.86 1195.25L1275.86 1199.25L1282.79 1199.25L1279.33 1193.25L1275.86 1195.25ZM618.552 819.749L1056.76 819.749L1056.76 811.749L618.552 811.749L618.552 819.749ZM841.12 1193.25L622.016 813.749L615.088 817.749L834.192 1197.25L841.12 1193.25ZM1275.86 1191.25L837.656 1191.25L837.656 1199.25L1275.86 1199.25L1275.86 1191.25ZM1053.3 817.749L1272.4 1197.25L1279.33 1193.25L1060.22 813.749L1053.3 817.749Z" fill="black" mask="url(#path-7-inside-3_10_502)"/>
<g filter="url(#filter0_d_10_502)">
<path d="M1610.06 536.641L1835.71 927.462L1610.06 1318.28L1158.78 1318.28L933.142 927.462L1158.78 536.641L1610.06 536.641Z" fill="black"/>
<mask id="path-10-inside-4_10_502" fill="white">
<path fill-rule="evenodd" clip-rule="evenodd" d="M1384.13 926.662L1165.03 547.162L945.924 926.662L1165.03 1306.16L1384.13 926.662Z"/>
</mask>
<path fill-rule="evenodd" clip-rule="evenodd" d="M1384.13 926.662L1165.03 547.162L945.924 926.662L1165.03 1306.16L1384.13 926.662Z" fill="#2864AE"/>
<path d="M1165.03 547.162L1168.49 545.162L1165.03 539.162L1161.56 545.162L1165.03 547.162ZM1384.13 926.662L1387.6 928.662L1388.75 926.662L1387.6 924.662L1384.13 926.662ZM945.924 926.662L942.46 924.662L941.305 926.662L942.46 928.662L945.924 926.662ZM1165.03 1306.16L1161.56 1308.16L1165.03 1314.16L1168.49 1308.16L1165.03 1306.16ZM1161.56 549.162L1380.67 928.662L1387.6 924.662L1168.49 545.162L1161.56 549.162ZM949.388 928.662L1168.49 549.162L1161.56 545.162L942.46 924.662L949.388 928.662ZM1168.49 1304.16L949.388 924.662L942.46 928.662L1161.56 1308.16L1168.49 1304.16ZM1380.67 924.662L1161.56 1304.16L1168.49 1308.16L1387.6 928.662L1380.67 924.662Z" fill="black" mask="url(#path-10-inside-4_10_502)"/>
<mask id="path-12-inside-5_10_502" fill="white">
<path fill-rule="evenodd" clip-rule="evenodd" d="M1603.68 1305.21L1822.79 925.712L1384.58 925.712L1165.48 1305.21L1603.68 1305.21Z"/>
</mask>
<path fill-rule="evenodd" clip-rule="evenodd" d="M1603.68 1305.21L1822.79 925.712L1384.58 925.712L1165.48 1305.21L1603.68 1305.21Z" fill="#FABD10"/>
<path d="M1822.79 925.712L1826.25 927.712L1829.72 921.712L1822.79 921.712L1822.79 925.712ZM1603.68 1305.21L1603.68 1309.21L1605.99 1309.21L1607.15 1307.21L1603.68 1305.21ZM1384.58 925.712L1384.58 921.712L1382.27 921.712L1381.12 923.712L1384.58 925.712ZM1165.48 1305.21L1162.01 1303.21L1158.55 1309.21L1165.48 1309.21L1165.48 1305.21ZM1819.33 923.712L1600.22 1303.21L1607.15 1307.21L1826.25 927.712L1819.33 923.712ZM1384.58 929.712L1822.79 929.712L1822.79 921.712L1384.58 921.712L1384.58 929.712ZM1168.94 1307.21L1388.04 927.712L1381.12 923.712L1162.01 1303.21L1168.94 1307.21ZM1603.68 1301.21L1165.48 1301.21L1165.48 1309.21L1603.68 1309.21L1603.68 1301.21Z" fill="black" mask="url(#path-12-inside-5_10_502)"/>
<mask id="path-14-inside-6_10_502" fill="white">
<path fill-rule="evenodd" clip-rule="evenodd" d="M1603.68 545.712L1165.48 545.712L1384.58 925.212L1822.79 925.212L1603.68 545.712Z"/>
</mask>
<path fill-rule="evenodd" clip-rule="evenodd" d="M1603.68 545.712L1165.48 545.712L1384.58 925.212L1822.79 925.212L1603.68 545.712Z" fill="#46AD44"/>
<path d="M1165.48 545.712L1165.48 541.712L1158.55 541.712L1162.01 547.712L1165.48 545.712ZM1603.68 545.712L1607.15 543.712L1605.99 541.712L1603.68 541.712L1603.68 545.712ZM1384.58 925.212L1381.12 927.212L1382.27 929.212L1384.58 929.212L1384.58 925.212ZM1822.79 925.212L1822.79 929.212L1829.72 929.212L1826.25 923.212L1822.79 925.212ZM1165.48 549.712L1603.68 549.712L1603.68 541.712L1165.48 541.712L1165.48 549.712ZM1388.04 923.212L1168.94 543.712L1162.01 547.712L1381.12 927.212L1388.04 923.212ZM1822.79 921.212L1384.58 921.212L1384.58 929.212L1822.79 929.212L1822.79 921.212ZM1600.22 547.712L1819.33 927.212L1826.25 923.212L1607.15 543.712L1600.22 547.712Z" fill="black" mask="url(#path-14-inside-6_10_502)"/>
</g>
<g filter="url(#filter1_d_10_502)">
<path d="M2186.99 806.678L2412.63 1197.5L2186.99 1588.32L1735.71 1588.32L1510.07 1197.5L1735.71 806.678L2186.99 806.678Z" fill="black"/>
<mask id="path-17-inside-7_10_502" fill="white">
<path fill-rule="evenodd" clip-rule="evenodd" d="M1961.06 1196.7L1741.95 817.199L1522.85 1196.7L1741.95 1576.2L1961.06 1196.7Z"/>
</mask>
<path fill-rule="evenodd" clip-rule="evenodd" d="M1961.06 1196.7L1741.95 817.199L1522.85 1196.7L1741.95 1576.2L1961.06 1196.7Z" fill="#2864AE"/>
<path d="M1741.95 817.199L1745.42 815.199L1741.95 809.199L1738.49 815.199L1741.95 817.199ZM1961.06 1196.7L1964.52 1198.7L1965.68 1196.7L1964.52 1194.7L1961.06 1196.7ZM1522.85 1196.7L1519.38 1194.7L1518.23 1196.7L1519.38 1198.7L1522.85 1196.7ZM1741.95 1576.2L1738.49 1578.2L1741.95 1584.2L1745.42 1578.2L1741.95 1576.2ZM1738.49 819.199L1957.59 1198.7L1964.52 1194.7L1745.42 815.199L1738.49 819.199ZM1526.31 1198.7L1745.42 819.199L1738.49 815.199L1519.38 1194.7L1526.31 1198.7ZM1745.42 1574.2L1526.31 1194.7L1519.38 1198.7L1738.49 1578.2L1745.42 1574.2ZM1957.59 1194.7L1738.49 1574.2L1745.42 1578.2L1964.52 1198.7L1957.59 1194.7Z" fill="black" mask="url(#path-17-inside-7_10_502)"/>
<mask id="path-19-inside-8_10_502" fill="white">
<path fill-rule="evenodd" clip-rule="evenodd" d="M2180.61 1575.25L2399.71 1195.75L1961.5 1195.75L1742.4 1575.25L2180.61 1575.25Z"/>
</mask>
<path fill-rule="evenodd" clip-rule="evenodd" d="M2180.61 1575.25L2399.71 1195.75L1961.5 1195.75L1742.4 1575.25L2180.61 1575.25Z" fill="#FABD10"/>
<path d="M2399.71 1195.75L2403.18 1197.75L2406.64 1191.75L2399.71 1191.75L2399.71 1195.75ZM2180.61 1575.25L2180.61 1579.25L2182.92 1579.25L2184.07 1577.25L2180.61 1575.25ZM1961.5 1195.75L1961.5 1191.75L1959.2 1191.75L1958.04 1193.75L1961.5 1195.75ZM1742.4 1575.25L1738.94 1573.25L1735.47 1579.25L1742.4 1579.25L1742.4 1575.25ZM2396.25 1193.75L2177.15 1573.25L2184.07 1577.25L2403.18 1197.75L2396.25 1193.75ZM1961.5 1199.75L2399.71 1199.75L2399.71 1191.75L1961.5 1191.75L1961.5 1199.75ZM1745.86 1577.25L1964.97 1197.75L1958.04 1193.75L1738.94 1573.25L1745.86 1577.25ZM2180.61 1571.25L1742.4 1571.25L1742.4 1579.25L2180.61 1579.25L2180.61 1571.25Z" fill="black" mask="url(#path-19-inside-8_10_502)"/>
<mask id="path-21-inside-9_10_502" fill="white">
<path fill-rule="evenodd" clip-rule="evenodd" d="M2180.61 815.749L1742.4 815.749L1961.5 1195.25L2399.71 1195.25L2180.61 815.749Z"/>
</mask>
<path fill-rule="evenodd" clip-rule="evenodd" d="M2180.61 815.749L1742.4 815.749L1961.5 1195.25L2399.71 1195.25L2180.61 815.749Z" fill="#46AD44"/>
<path d="M1742.4 815.749L1742.4 811.749L1735.47 811.749L1738.94 817.749L1742.4 815.749ZM2180.61 815.749L2184.07 813.749L2182.92 811.749L2180.61 811.749L2180.61 815.749ZM1961.5 1195.25L1958.04 1197.25L1959.2 1199.25L1961.5 1199.25L1961.5 1195.25ZM2399.71 1195.25L2399.71 1199.25L2406.64 1199.25L2403.18 1193.25L2399.71 1195.25ZM1742.4 819.749L2180.61 819.749L2180.61 811.749L1742.4 811.749L1742.4 819.749ZM1964.97 1193.25L1745.86 813.749L1738.94 817.749L1958.04 1197.25L1964.97 1193.25ZM2399.71 1191.25L1961.5 1191.25L1961.5 1199.25L2399.71 1199.25L2399.71 1191.25ZM2177.15 817.749L2396.25 1197.25L2403.18 1193.25L2184.07 813.749L2177.15 817.749Z" fill="black" mask="url(#path-21-inside-9_10_502)"/>
</g>
<path d="M501 1989.04V1783.81H540.815V1975.2L518.286 1952.2H620.444V1989.04H501Z" fill="black"/>
<path d="M645.848 1989.04V1783.81H686.088V1989.04H645.848Z" fill="black"/>
<path d="M812.249 1992C793.452 1992 777.063 1987.86 763.083 1979.58C749.197 1971.3 738.382 1959.25 730.636 1943.45C722.985 1927.54 719.159 1908.3 719.159 1885.72C719.159 1863.98 722.89 1845.21 730.353 1829.4C737.909 1813.59 748.678 1801.41 762.658 1792.84C776.732 1784.28 793.499 1780 812.957 1780C827.032 1780 839.926 1782.68 851.639 1788.05C863.352 1793.41 872.75 1801.41 879.835 1812.04C887.014 1822.67 890.698 1835.85 890.887 1851.56H850.363C850.08 1843.19 848.096 1836.46 844.412 1831.38C840.729 1826.3 835.911 1822.63 829.96 1820.37C824.009 1818.11 817.491 1816.98 810.407 1816.98C800.678 1816.98 791.987 1819.52 784.336 1824.6C776.779 1829.68 770.781 1837.35 766.342 1847.61C761.902 1857.87 759.682 1870.76 759.682 1886.28C759.682 1902.75 761.949 1916.06 766.483 1926.23C771.017 1936.29 777.157 1943.63 784.903 1948.24C792.649 1952.76 801.339 1955.02 810.974 1955.02C820.042 1955.02 827.457 1953.7 833.219 1951.07C838.981 1948.34 843.279 1944.62 846.113 1939.92C848.946 1935.21 850.458 1929.85 850.647 1923.83H891.17C890.886 1937.85 887.391 1949.99 880.685 1960.24C874.073 1970.4 864.91 1978.26 853.197 1983.81C841.484 1989.27 827.835 1992 812.249 1992Z" fill="black"/>
<path d="M920.094 1989.04V1783.81H960.334V1989.04H920.094Z" fill="black"/>
<path d="M1038.65 1989.04V1834.76C1038.65 1830.15 1039.5 1826.72 1041.2 1824.46C1042.9 1822.11 1045.5 1820.6 1048.99 1819.94H986.934V1783.81H1129.9V1819.94H1078.47V1989.04H1038.65Z" fill="black"/>
<path d="M1118.8 1989.04L1183.55 1783.81H1240.79L1305.54 1989.04H1263.46L1244.76 1924.81L1267 1941.05H1165.27L1171.51 1909.01H1257.65L1244.62 1924.39L1224.21 1855.09L1212.88 1811.19H1211.04L1199.84 1855.09L1160.74 1989.04H1118.8Z" fill="black"/>
<path d="M1329.41 1911.26V1880.21H1400.83L1400.4 1911.26H1329.41Z" fill="black"/>
<path d="M1528.44 1992C1509.65 1992 1493.26 1987.86 1479.28 1979.58C1465.39 1971.3 1454.58 1959.25 1446.83 1943.45C1439.18 1927.54 1435.35 1908.3 1435.35 1885.72C1435.35 1863.98 1439.08 1845.21 1446.55 1829.4C1454.1 1813.59 1464.87 1801.41 1478.85 1792.84C1492.93 1784.28 1509.69 1780 1529.15 1780C1543.23 1780 1556.12 1782.68 1567.83 1788.05C1579.55 1793.41 1588.94 1801.41 1596.03 1812.04C1603.21 1822.67 1606.89 1835.85 1607.08 1851.56H1566.56C1566.27 1843.19 1564.29 1836.46 1560.61 1831.38C1556.92 1826.3 1552.11 1822.63 1546.15 1820.37C1540.2 1818.11 1533.69 1816.98 1526.6 1816.98C1516.87 1816.98 1508.18 1819.52 1500.53 1824.6C1492.97 1829.68 1486.98 1837.35 1482.54 1847.61C1478.1 1857.87 1475.88 1870.76 1475.88 1886.28C1475.88 1902.75 1478.14 1916.06 1482.68 1926.23C1487.21 1936.29 1493.35 1943.63 1501.1 1948.24C1508.84 1952.76 1517.53 1955.02 1527.17 1955.02C1536.24 1955.02 1543.65 1953.7 1549.41 1951.07C1555.18 1948.34 1559.47 1944.62 1562.31 1939.92C1565.14 1935.21 1566.65 1929.85 1566.84 1923.83H1607.36C1607.08 1937.85 1603.59 1949.99 1596.88 1960.24C1590.27 1970.4 1581.1 1978.26 1569.39 1983.81C1557.68 1989.27 1544.03 1992 1528.44 1992Z" fill="black"/>
<path d="M1751.77 1989.04V1783.81H1791.44V1989.04H1751.77ZM1637.28 1989.04V1783.81H1676.95V1989.04H1637.28ZM1665.05 1901.38V1866.1H1758.28L1758 1901.38H1665.05Z" fill="black"/>
<path d="M1815.07 1989.04L1879.82 1783.81H1937.06L2001.81 1989.04H1959.73L1941.03 1924.81L1963.27 1941.05H1861.54L1867.78 1909.01H1953.92L1940.89 1924.39L1920.48 1855.09L1909.15 1811.19H1907.31L1896.11 1855.09L1857.01 1989.04H1815.07Z" fill="black"/>
<path d="M2024.83 1989.04V1783.81H2065.07V1989.04H2024.83Z" fill="black"/>
<path d="M2106.35 1989.04V1783.81H2154.52L2218.57 1906.75L2235.71 1949.8H2236.84L2231.18 1900.4V1783.81H2270V1989.04H2221.54L2157.92 1866.52L2141.49 1826.15H2140.07L2145.17 1880.92V1989.04H2106.35Z" fill="black"/>
<defs>
<filter id="filter0_d_10_502" x="909.142" y="527.641" width="926.563" height="799.643" filterUnits="userSpaceOnUse" color-interpolation-filters="sRGB">
<feFlood flood-opacity="0" result="BackgroundImageFix"/>
<feColorMatrix in="SourceAlpha" type="matrix" values="0 0 0 0 0 0 0 0 0 0 0 0 0 0 0 0 0 0 127 0" result="hardAlpha"/>
<feOffset dx="-15"/>
<feGaussianBlur stdDeviation="4.5"/>
<feComposite in2="hardAlpha" operator="out"/>
<feColorMatrix type="matrix" values="0 0 0 0 0 0 0 0 0 0 0 0 0 0 0 0 0 0 0.25 0"/>
<feBlend mode="normal" in2="BackgroundImageFix" result="effect1_dropShadow_10_502"/>
<feBlend mode="normal" in="SourceGraphic" in2="effect1_dropShadow_10_502" result="shape"/>
</filter>
<filter id="filter1_d_10_502" x="1486.07" y="797.678" width="926.563" height="799.643" filterUnits="userSpaceOnUse" color-interpolation-filters="sRGB">
<feFlood flood-opacity="0" result="BackgroundImageFix"/>
<feColorMatrix in="SourceAlpha" type="matrix" values="0 0 0 0 0 0 0 0 0 0 0 0 0 0 0 0 0 0 127 0" result="hardAlpha"/>
<feOffset dx="-15"/>
<feGaussianBlur stdDeviation="4.5"/>
<feComposite in2="hardAlpha" operator="out"/>
<feColorMatrix type="matrix" values="0 0 0 0 0 0 0 0 0 0 0 0 0 0 0 0 0 0 0.5 0"/>
<feBlend mode="normal" in2="BackgroundImageFix" result="effect1_dropShadow_10_502"/>
<feBlend mode="normal" in="SourceGraphic" in2="effect1_dropShadow_10_502" result="shape"/>
</filter>
</defs>
</svg>
